<?xml version="1.0" encoding="UTF-8"?>
<svg id="Layer_1" data-name="Layer 1" xmlns="http://www.w3.org/2000/svg" viewBox="0 0 2000 736.94">
  <defs>
    <style>
      .cls-1 {
        fill: #fdbc1f;
      }

      .cls-2, .cls-3 {
        fill: #3f3f3f;
      }

      .cls-4, .cls-3 {
        isolation: isolate;
      }

      .cls-3 {
        font-family: ScriptMTBold, 'Script MT Bold';
        font-size: 63.81px;
      }

      .cls-5 {
        fill: #58595b;
      }

      .cls-6 {
        fill: #585856;
      }
    </style>
  </defs>
  <g>
    <rect class="cls-6" x="338.86" y="527.66" width="2.41" height="14.92"/>
    <path class="cls-6" d="M355.6,540.65c-.35.63-.89,1.13-1.61,1.51-.72.38-1.6.57-2.64.57s-1.93-.18-2.73-.54c-.8-.36-1.45-.86-1.93-1.51-.48-.65-.75-1.4-.82-2.24h2.58c.07.65.35,1.21.84,1.67.49.47,1.14.7,1.96.7.73,0,1.3-.2,1.7-.59s.6-.9.6-1.52c0-.54-.15-.98-.45-1.32-.3-.35-.66-.62-1.1-.81-.44-.2-1.04-.42-1.8-.68-.93-.3-1.69-.59-2.28-.89-.58-.3-1.08-.73-1.49-1.29s-.61-1.3-.61-2.22c0-.8.2-1.51.59-2.11.39-.61.96-1.07,1.69-1.41.73-.33,1.58-.5,2.54-.5,1.52,0,2.73.37,3.63,1.1s1.41,1.69,1.53,2.87h-2.6c-.1-.56-.36-1.05-.79-1.45-.43-.4-1.02-.6-1.77-.6-.68,0-1.22.17-1.63.52s-.61.84-.61,1.49c0,.51.14.93.42,1.26s.64.59,1.07.78,1.02.41,1.77.66c.95.3,1.72.6,2.32.9.6.3,1.11.75,1.52,1.32.42.58.62,1.34.62,2.28,0,.73-.18,1.41-.53,2.04"/>
    <path class="cls-6" d="M371.33,528.45c1.12.65,2,1.55,2.64,2.72.64,1.16.96,2.47.96,3.94s-.32,2.78-.96,3.94c-.64,1.16-1.52,2.07-2.64,2.73-1.12.66-2.37.98-3.76.98s-2.66-.33-3.78-.98c-1.12-.66-2.01-1.57-2.66-2.73s-.97-2.48-.97-3.94.32-2.78.97-3.94,1.53-2.07,2.66-2.72c1.12-.65,2.38-.97,3.78-.97s2.63.33,3.76.97M365.01,530.37c-.75.44-1.33,1.06-1.75,1.88s-.63,1.77-.63,2.85.21,2.04.63,2.85c.42.82,1,1.45,1.75,1.88.75.44,1.6.66,2.56.66s1.79-.22,2.53-.66,1.32-1.07,1.74-1.88c.42-.82.62-1.77.62-2.85s-.21-2.04-.62-2.85c-.42-.82-1-1.44-1.74-1.88s-1.58-.66-2.53-.66-1.81.22-2.56.66"/>
    <path class="cls-6" d="M389.68,540.14c.44.44,1.05.66,1.81.66,1.07,0,1.87-.43,2.4-1.28.53-.85.79-2.2.79-4.03l-.02-.72c-.23.76-.69,1.37-1.41,1.83-.71.46-1.54.69-2.49.69-1.47,0-2.62-.44-3.45-1.32-.83-.88-1.25-2.11-1.25-3.69,0-.96.19-1.82.57-2.58s.95-1.36,1.71-1.81c.76-.44,1.7-.67,2.81-.67,2.16,0,3.64.66,4.46,1.98.81,1.32,1.22,3.14,1.22,5.46,0,2.64-.41,4.64-1.24,6.02s-2.2,2.07-4.12,2.07c-1.48,0-2.64-.42-3.48-1.26s-1.32-1.91-1.45-3.22h2.29c.11.8.39,1.42.84,1.86M393.63,530.23c-.53-.61-1.32-.92-2.38-.92-.88,0-1.58.26-2.11.78s-.79,1.25-.79,2.2c0,1,.26,1.77.79,2.3.53.54,1.25.8,2.17.8.54,0,1.04-.11,1.51-.33.47-.22.86-.54,1.15-.97s.44-.95.44-1.57c0-.92-.27-1.68-.79-2.29"/>
    <path class="cls-6" d="M401.13,535.02c0-2.37.42-4.22,1.27-5.56.85-1.34,2.26-2.01,4.23-2.01s3.38.67,4.23,2.02c.85,1.35,1.27,3.2,1.27,5.55s-.42,4.23-1.27,5.58c-.85,1.35-2.26,2.03-4.23,2.03s-3.39-.67-4.23-2.02c-.85-1.34-1.27-3.21-1.27-5.59M409.73,535.02c0-1.69-.21-2.99-.64-3.9-.42-.91-1.24-1.36-2.45-1.36s-2.05.45-2.48,1.35c-.42.9-.63,2.21-.63,3.91s.21,3.04.63,3.95c.42.92,1.25,1.37,2.48,1.37s2.03-.46,2.45-1.37c.42-.92.64-2.23.64-3.95"/>
    <path class="cls-6" d="M416.43,535.02c0-2.37.42-4.22,1.27-5.56.85-1.34,2.26-2.01,4.23-2.01s3.39.67,4.23,2.02c.85,1.35,1.27,3.2,1.27,5.55s-.42,4.23-1.27,5.58c-.85,1.35-2.26,2.03-4.23,2.03s-3.39-.67-4.23-2.02c-.85-1.34-1.27-3.21-1.27-5.59M425.02,535.02c0-1.69-.21-2.99-.63-3.9-.42-.91-1.24-1.36-2.46-1.36s-2.05.45-2.48,1.35c-.42.9-.63,2.21-.63,3.91s.21,3.04.63,3.95c.42.92,1.25,1.37,2.48,1.37s2.03-.46,2.46-1.37c.42-.92.63-2.23.63-3.95"/>
    <polygon class="cls-6" points="430.91 529.93 430.91 527.66 435.69 527.66 435.69 542.59 433.15 542.59 433.15 529.93 430.91 529.93"/>
    <path class="cls-6" d="M442.95,533.62h-2.73v-2.66h2.73v2.66ZM442.95,542.59h-2.73v-2.66h2.73v2.66Z"/>
    <path class="cls-6" d="M452.27,536.11c1.38-1.5,2.06-2.89,2.06-4.17,0-.76-.19-1.37-.56-1.82s-.98-.68-1.81-.68-1.51.28-1.95.84-.68,1.35-.74,2.38h-2.35c.1-1.7.63-3.01,1.58-3.91.95-.9,2.17-1.35,3.65-1.35s2.59.38,3.42,1.15c.83.77,1.24,1.83,1.24,3.18,0,1.09-.33,2.18-1,3.3-.67,1.11-1.52,2.14-2.55,3.08s-2.09,1.74-3.19,2.42h7.09v1.97h-10.37v-1.78c2.29-1.56,4.12-3.1,5.49-4.6"/>
    <path class="cls-6" d="M461.14,535.02c0-2.37.42-4.22,1.27-5.56.85-1.34,2.26-2.01,4.23-2.01s3.38.67,4.23,2.02c.85,1.35,1.27,3.2,1.27,5.55s-.42,4.23-1.27,5.58c-.85,1.35-2.26,2.03-4.23,2.03s-3.39-.67-4.23-2.02c-.85-1.34-1.27-3.21-1.27-5.59M469.74,535.02c0-1.69-.21-2.99-.64-3.9-.42-.91-1.24-1.36-2.45-1.36s-2.05.45-2.48,1.35c-.42.9-.63,2.21-.63,3.91s.21,3.04.63,3.95c.42.92,1.25,1.37,2.48,1.37s2.03-.46,2.45-1.37c.42-.92.64-2.23.64-3.95"/>
    <polygon class="cls-6" points="475.62 529.93 475.62 527.66 480.4 527.66 480.4 542.59 477.86 542.59 477.86 529.93 475.62 529.93"/>
    <path class="cls-6" d="M495.4,529.57h-7.39v4.44c.34-.44.82-.78,1.44-1.05.62-.26,1.3-.39,2.05-.39,1.04,0,1.91.22,2.6.67.69.44,1.2,1.03,1.53,1.76s.5,1.54.5,2.43c0,1.56-.44,2.83-1.31,3.79-.87.97-2.14,1.45-3.81,1.45-1.57,0-2.83-.42-3.79-1.25-.96-.83-1.48-1.94-1.57-3.32h2.37c.13.76.44,1.36.94,1.8s1.14.66,1.91.66c.96,0,1.68-.29,2.16-.87s.72-1.35.72-2.3c0-.9-.25-1.61-.74-2.12s-1.2-.77-2.12-.77c-.65,0-1.22.14-1.7.42-.49.28-.84.66-1.07,1.12h-2.35v-8.61h9.61v2.14h.02Z"/>
    <path class="cls-5" d="M419.45,402.85c-30.84,0-55.93-25.06-55.93-55.87s25.09-55.87,55.93-55.87,55.93,25.06,55.93,55.87-25.09,55.87-55.93,55.87M419.45,293.43c-29.55,0-53.6,24.02-53.6,53.54s24.04,53.54,53.6,53.54,53.6-24.02,53.6-53.54-24.05-53.54-53.6-53.54"/>
    <rect class="cls-5" x="418.28" y="292.27" width="2.33" height="109.41"/>
    <rect class="cls-5" x="364.69" y="345.59" width="109.51" height="2.33"/>
    <rect class="cls-5" x="372.74" y="372.82" width="93.42" height="2.33"/>
    <rect class="cls-5" x="372.74" y="317.62" width="93.42" height="2.33"/>
    <path class="cls-5" d="M408.06,401.36c-20.67-28.84-19.57-56.89-15-75.34,4.94-19.96,14.61-32.91,15.02-33.46l1.86,1.4c-.1.13-9.83,13.17-14.64,32.7-4.43,17.95-5.48,45.25,14.66,73.34l-1.89,1.36h0Z"/>
    <path class="cls-5" d="M431.56,401.36l-1.89-1.36c38.57-53.81.41-105.52.02-106.04l1.86-1.4c.41.54,10.08,13.49,15.02,33.46,4.57,18.45,5.67,46.5-15,75.34"/>
    <path class="cls-5" d="M461.92,300.07c-11.7-10.81-26.72-16.7-42.47-16.7s-30.19,5.68-41.78,16.23l-3-3.33c12.41-11.3,28.26-17.38,44.78-17.38s32.98,6.31,45.52,17.9l-3.05,3.28Z"/>
    <path class="cls-5" d="M372.71,304.5c-10.96,11.58-16.89,26.57-16.94,42.3-.04,15.39,5.6,30.18,16.06,41.83l-3.34,2.99c-11.2-12.48-17.25-28.33-17.2-44.84.05-16.86,6.41-32.93,18.14-45.34l3.28,3.06Z"/>
    <path class="cls-5" d="M376.76,393.6c11.61,10.93,26.6,16.9,42.34,16.99,15.41.08,30.22-5.51,41.96-15.89l2.98,3.34c-12.57,11.12-28.45,17.12-44.97,17.03-16.88-.09-32.95-6.5-45.38-18.2l3.07-3.26h0Z"/>
    <path class="cls-5" d="M465.98,389.69c10.99-11.51,17.01-26.47,17.14-42.19.13-15.39-5.43-30.21-15.86-41.92l3.35-2.97c11.17,12.55,17.13,28.43,16.99,44.93-.14,16.86-6.59,32.89-18.37,45.23l-3.26-3.07h.01Z"/>
    <path class="cls-5" d="M498.08,260.04c-21.8-19.73-49.69-30.66-78.92-30.66s-56.06,10.54-77.3,29.67l-5.57-6.17c22.77-20.52,52.2-31.81,82.87-31.81s61.24,11.73,84.58,32.89l-5.66,6.09h0Z"/>
    <path class="cls-5" d="M333.09,268.31c-20.08,21.5-31.1,49.33-31.18,78.53-.08,28.58,10.39,56.03,29.49,77.3l-6.38,5.63c-20.47-22.8-31.52-52.31-31.44-82.95.09-31.31,11.46-61.32,32.98-84.36l6.53,5.85h0Z"/>
    <path class="cls-5" d="M340.32,433.46c21.5,19.9,49.33,30.99,78.56,31.15,28.61.16,56.12-10.23,77.67-29.24l5.54,6.21c-23.09,20.39-52.58,31.52-83.25,31.35-31.34-.17-61.17-12.06-84.21-33.4l5.7-6.06h-.01Z"/>
    <path class="cls-5" d="M505.84,426.27c19.91-21.36,31.09-49.12,31.33-78.32.24-28.58-10.09-56.09-29.05-77.73l6.23-5.52c20.33,23.19,31.4,52.68,31.15,83.32-.26,31.31-12.24,61.08-33.6,83.96l-6.05-5.71h-.01Z"/>
    <path class="cls-5" d="M538.57,257.42s67.32,75.95,1.29,183.76l43.7-.69s9.48-7.69-2.77-18.47c0,0-6.8-2.55-.47-18.39,0,0,37.12-103.13-41.75-146.21"/>
    <path class="cls-5" d="M303.23,437.78s-68.41-74.98-3.95-183.72l-43.69,1.32s-9.37,7.83,3.04,18.43c0,0,6.84,2.45.74,18.38,0,0-35.63,103.65,43.86,145.59"/>
    <path class="cls-5" d="M503.2,396.97l-18.05-1.07s14.03-20.08,14.17-48.46v-.27c-.13-28.38-14.14-48.47-14.14-48.47l18.05-1.05c4.25,2.12-1.06,8.49-1.06,8.49-5.32,5.31,0,12.74,0,12.74,9.55,5.3,10.61,14.86,10.61,14.86,18.82-3.25,19.22,11,19.13,13.45,0,.06.01.15,0,.27.08,2.46-.32,16.71-19.14,13.44,0,0-1.06,9.56-10.62,14.85,0,0-5.32,7.43,0,12.74,0,0,5.31,6.37,1.06,8.49"/>
    <path class="cls-5" d="M335.47,297.38l18.06,1s-13.96,20.13-14.01,48.51v.27c.23,28.38,14.31,48.42,14.31,48.42l-18.05,1.12c-4.26-2.11,1.03-8.49,1.03-8.49,5.3-5.33-.04-12.74-.04-12.74-9.57-5.27-10.66-14.82-10.66-14.82-18.81,3.32-19.25-10.93-19.18-13.39,0-.06-.01-.15,0-.27-.09-2.46.26-16.71,19.1-13.51,0,0,1.03-9.56,10.57-14.89,0,0,5.29-7.44-.04-12.74,0,0-5.33-6.35-1.09-8.49"/>
    <path class="cls-1" d="M464.88,296.87c-12.44-11.33-28.58-17.57-45.43-17.57s-32.43,6.04-44.78,16.99l-4.96-5.58c13.72-12.17,31.38-18.87,49.74-18.87s36.64,6.93,50.46,19.52l-5.03,5.52h0Z"/>
    <path class="cls-1" d="M369.42,301.46c-11.38,12.4-17.67,28.5-17.71,45.33-.05,16.51,5.95,32.41,16.88,44.77l-5.6,4.94c-12.15-13.73-18.81-31.4-18.76-49.74.05-18.7,7.04-36.58,19.68-50.35l5.51,5.04h0Z"/>
    <path class="cls-1" d="M373.75,396.83c12.38,11.4,28.48,17.73,45.33,17.82,16.53.09,32.46-5.86,44.87-16.74l4.93,5.61c-13.78,12.1-31.48,18.7-49.84,18.6-18.72-.1-36.6-7.13-50.35-19.79l5.06-5.49h0Z"/>
    <path class="cls-1" d="M469.23,392.77c11.44-12.34,17.82-28.4,17.96-45.23.14-16.51-5.77-32.44-16.64-44.87l5.63-4.91c12.07,13.8,18.63,31.5,18.48,49.84-.15,18.7-7.24,36.54-19.95,50.25l-5.48-5.07h0Z"/>
    <path class="cls-1" d="M503.8,253.95c-23.11-21.04-53.06-32.62-84.35-32.62s-60.21,11.2-83.14,31.54l-9.21-10.36c25.47-22.6,58.26-35.04,92.35-35.04s68.03,12.87,93.7,36.24l-9.35,10.24h0Z"/>
    <path class="cls-1" d="M326.56,262.45c-21.12,23.02-32.8,52.91-32.89,84.17-.08,30.66,11.05,60.18,31.35,83.14l-10.4,9.18c-22.55-25.5-34.92-58.3-34.82-92.35.09-34.72,13.07-67.92,36.53-93.5l10.23,9.36h0Z"/>
    <path class="cls-1" d="M334.59,439.54c22.99,21.16,52.88,32.91,84.17,33.08,30.69.17,60.27-10.87,83.31-31.09l9.16,10.41c-25.59,22.46-58.46,34.72-92.54,34.54-34.75-.19-67.96-13.24-93.49-36.75l9.4-10.19h-.01Z"/>
    <path class="cls-1" d="M511.88,432c21.25-22.91,33.09-52.73,33.35-83.99.25-30.65-10.72-60.24-30.89-83.31l10.45-9.12c22.41,25.63,34.6,58.49,34.32,92.54-.29,34.72-13.44,67.85-37.05,93.3l-10.18-9.42h0Z"/>
    <path class="cls-1" d="M327.44,232.79s73.51-69.99,183.78-8.03l-2.3-43.6s-8.04-9.18-18.38,3.44c0,0-2.3,6.88-18.38,1.15,0,0-104.52-33.28-144.73,47.05"/>
    <path class="cls-1" d="M509.64,464.78s-76.55,66.66-183.96-.14l.35,43.66s7.62,9.53,18.51-2.62c0,0,2.6-6.77,18.41-.33,0,0,102.94,37.89,146.68-40.57"/>
    <path class="cls-1" d="M469.39,263.33l-1.06,18.03s-20.1-14-48.52-14.15h-.27c-28.41.14-48.52,14.15-48.52,14.15l-1.06-18.03c2.12-4.25,8.5,1.06,8.5,1.06,5.31,5.31,12.75,0,12.75,0,5.3-9.55,14.87-10.61,14.87-10.61-3.26-18.8,11-19.2,13.46-19.12.06,0,.15,0,.27,0,2.46-.08,16.72.32,13.46,19.12,0,0,9.57,1.06,14.87,10.61,0,0,7.44,5.31,12.75,0,0,0,6.38-5.31,8.5-1.06"/>
    <path class="cls-1" d="M369.21,430.59l1.12-18.03s20.06,14.07,48.47,14.29h.27c28.42-.05,48.56-14,48.56-14l1,18.04c-2.13,4.24-8.49-1.09-8.49-1.09-5.3-5.32-12.75-.04-12.75-.04-5.33,9.53-14.9,10.56-14.9,10.56,3.21,18.81-11.06,19.17-13.52,19.08-.06,0-.15.01-.27,0-2.46.07-16.72-.37-13.4-19.16,0,0-9.57-1.09-14.84-10.65,0,0-7.42-5.33-12.75-.04,0,0-6.39,5.29-8.5,1.03"/>
  </g>
  <path class="cls-2" d="M729.52,287.91c9.52,7.43,15.8,17.53,18.87,30.32h-24.28c-2.52-6.23-6.43-11.14-11.73-14.75-5.31-3.61-11.68-5.41-19.11-5.41-6.12,0-11.65,1.53-16.57,4.59s-8.75,7.43-11.48,13.11-4.1,12.35-4.1,19.99,1.36,14.15,4.1,19.83c2.73,5.68,6.56,10.05,11.48,13.11s10.44,4.59,16.57,4.59c7.44,0,13.81-1.8,19.11-5.41,5.3-3.61,9.21-8.52,11.73-14.75h24.28c-3.06,12.78-9.35,22.89-18.87,30.32-9.51,7.43-21.49,11.15-35.93,11.15-11.05,0-20.81-2.49-29.28-7.46-8.48-4.97-15.04-11.93-19.69-20.89-4.65-8.96-6.97-19.12-6.97-30.48s2.32-21.69,6.97-30.65c4.65-8.96,11.18-15.92,19.6-20.89s18.21-7.46,29.36-7.46c14.44,0,26.41,3.71,35.93,11.14"/>
  <path class="cls-2" d="M767.09,267.67c2.63-2.35,6.07-3.52,10.34-3.52s7.71,1.18,10.34,3.52c2.62,2.35,3.93,5.38,3.93,9.1s-1.31,6.58-3.93,8.93c-2.63,2.35-6.07,3.52-10.34,3.52s-7.71-1.17-10.34-3.52c-2.63-2.35-3.94-5.33-3.94-8.93s1.31-6.75,3.94-9.1M788.91,393.61h-23.13v-90.79h23.13v90.79Z"/>
  <path class="cls-2" d="M846.49,306.5c5.58-3.33,11.81-5,18.7-5v24.75h-6.73c-16.95,0-25.43,7.86-25.43,23.6v43.76h-23.13v-90.79h23.13v17.37c3.39-5.79,7.87-10.35,13.45-13.68"/>
  <path class="cls-2" d="M948.11,311.17c7.82,6.34,12.71,14.97,14.68,25.89h-24.44c-.98-4.81-3.22-8.6-6.72-11.39s-7.93-4.18-13.29-4.18c-6.13,0-11.24,2.27-15.34,6.8-4.1,4.54-6.15,11.17-6.15,19.91s2.05,15.38,6.15,19.91c4.1,4.53,9.21,6.8,15.34,6.8,5.36,0,9.79-1.39,13.29-4.18,3.5-2.79,5.74-6.58,6.72-11.39h24.44c-1.97,10.93-6.87,19.56-14.68,25.89-7.82,6.34-17.58,9.51-29.28,9.51-8.86,0-16.73-1.89-23.62-5.65-6.89-3.77-12.25-9.15-16.08-16.14s-5.74-15.24-5.74-24.74,1.91-17.78,5.74-24.83,9.19-12.43,16.08-16.14,14.76-5.57,23.62-5.57c11.7,0,21.46,3.17,29.28,9.5"/>
  <rect class="cls-2" x="979.2" y="272.34" width="23.13" height="121.27"/>
  <path class="cls-2" d="M1107.98,352.64h-66.6c.33,8.09,2.51,14.04,6.56,17.86,4.05,3.83,9.08,5.74,15.09,5.74,5.36,0,9.82-1.31,13.37-3.93s5.82-6.17,6.81-10.65h24.44c-1.21,6.34-3.77,12.02-7.71,17.04-3.94,5.02-9,8.96-15.18,11.8s-13.04,4.26-20.59,4.26c-8.86,0-16.73-1.88-23.62-5.65s-12.25-9.15-16.08-16.14c-3.83-6.99-5.74-15.24-5.74-24.75s1.91-17.78,5.74-24.83c3.83-7.05,9.19-12.43,16.08-16.14s14.76-5.57,23.62-5.57,16.81,1.86,23.54,5.57c6.73,3.72,11.92,8.82,15.58,15.32,3.66,6.5,5.5,13.9,5.5,22.21,0,2.29-.27,4.92-.82,7.86M1079.68,325.6c-4.21-3.82-9.38-5.74-15.5-5.74s-11.49,1.91-15.75,5.74c-4.27,3.83-6.62,9.45-7.05,16.88h44.13c.33-7.43-1.62-13.05-5.82-16.88"/>
  <path class="cls-5" d="M1725.33,298.85c-12.83,0-23.26-10.42-23.26-23.24s10.44-23.24,23.26-23.24,23.26,10.42,23.26,23.24-10.44,23.24-23.26,23.24M1725.33,254.44c-11.69,0-21.19,9.5-21.19,21.17s9.51,21.17,21.19,21.17,21.19-9.5,21.19-21.17-9.51-21.17-21.19-21.17"/>
  <polygon class="cls-5" points="1719.09 267.29 1719.09 269.56 1714.22 269.56 1714.22 284.73 1711.38 284.73 1711.38 269.56 1706.53 269.56 1706.53 267.29 1719.09 267.29"/>
  <polygon class="cls-5" points="1741.76 267.56 1741.76 284.73 1738.91 284.73 1738.91 271.86 1733.95 284.73 1731.47 284.73 1726.48 271.86 1726.48 284.73 1723.66 284.73 1723.66 267.56 1727.07 267.56 1732.76 281.27 1738.35 267.56 1741.76 267.56"/>
  <polygon class="cls-1" points="1233.05 391.01 1213.11 391.01 1168.43 323.2 1168.43 391.01 1148.49 391.01 1148.49 291.28 1168.43 291.28 1213.11 359.65 1213.11 291.28 1233.05 291.28 1233.05 391.01"/>
  <path class="cls-1" d="M1324.12,355.69h-57.41c.28,6.97,2.17,12.1,5.66,15.4s7.82,4.95,13.01,4.95c4.62,0,8.46-1.13,11.52-3.39s5.02-5.32,5.87-9.18h21.07c-1.04,5.46-3.25,10.36-6.65,14.69-3.39,4.33-7.75,7.72-13.08,10.17s-11.24,3.67-17.75,3.67c-7.64,0-14.43-1.63-20.37-4.87-5.94-3.25-10.56-7.89-13.86-13.91-3.3-6.03-4.95-13.14-4.95-21.33s1.65-15.33,4.95-21.4c3.3-6.07,7.92-10.71,13.86-13.91s12.73-4.8,20.37-4.8,14.49,1.6,20.29,4.8c5.8,3.2,10.28,7.61,13.44,13.21,3.16,5.6,4.74,11.99,4.74,19.14,0,1.98-.24,4.24-.71,6.78M1299.73,332.38c-3.63-3.29-8.09-4.94-13.36-4.94s-9.9,1.65-13.58,4.94c-3.68,3.3-5.7,8.15-6.08,14.55h38.04c.28-6.4-1.39-11.25-5.02-14.55"/>
  <path class="cls-1" d="M1380.82,373.91v17.09h-10.46c-8.77,0-15.48-2.12-20.15-6.36s-7-11.3-7-21.19v-33.9h-10.89v-16.81h10.89v-19.35h19.94v19.35h17.53v16.81h-17.53v34.18c0,3.77.75,6.41,2.26,7.91,1.51,1.51,4.05,2.26,7.64,2.26h7.78-.01Z"/>
  <polygon class="cls-1" points="1507.24 312.75 1486.17 391.01 1464.11 391.01 1447.28 334.08 1430.03 391.01 1407.97 391.01 1387.04 312.75 1406.98 312.75 1419.71 373.21 1437.1 312.75 1458.17 312.75 1475.71 373.21 1488.58 312.75 1507.24 312.75"/>
  <path class="cls-1" d="M1573.92,316.56c6.08,3.2,10.86,7.84,14.36,13.91,3.49,6.07,5.23,13.21,5.23,21.4s-1.74,15.3-5.23,21.33-8.27,10.67-14.36,13.91c-6.08,3.25-12.94,4.87-20.58,4.87s-14.49-1.62-20.57-4.87-10.87-7.89-14.36-13.91c-3.49-6.03-5.23-13.14-5.23-21.33s1.74-15.33,5.23-21.4,8.27-10.71,14.36-13.91c6.08-3.2,12.94-4.8,20.57-4.8s14.5,1.6,20.58,4.8M1539.2,334.86c-3.87,3.91-5.8,9.58-5.8,17.02s1.93,13.11,5.8,17.02,8.58,5.86,14.14,5.86,10.27-1.95,14.14-5.86c3.86-3.91,5.8-9.58,5.8-17.02s-1.93-13.11-5.8-17.02-8.58-5.86-14.14-5.86-10.27,1.96-14.14,5.86"/>
  <path class="cls-1" d="M1639.18,315.92c4.81-2.87,10.18-4.31,16.12-4.31v21.33h-5.8c-14.61,0-21.92,6.78-21.92,20.34v37.72h-19.94v-78.26h19.94v14.97c2.92-4.99,6.79-8.92,11.6-11.8"/>
  <polygon class="cls-1" points="1712.15 391.01 1686.27 356.82 1686.27 391.01 1666.33 391.01 1666.33 286.47 1686.27 286.47 1686.27 345.24 1712 312.75 1735.62 312.75 1702.67 351.74 1736.47 391.01 1712.15 391.01"/>
  <g class="cls-4">
    <text class="cls-3" transform="translate(1138.59 482.82)"><tspan x="0" y="0">Connected to the world...</tspan></text>
  </g>
</svg>