<svg xmlns="http://www.w3.org/2000/svg" width="3000" height="2000"><path fill="#F6931C" d="M607 613c0 3.369-.401 3.903-2.352 6.492l-1.56 2.105-1.713 2.278c-5.051 6.858-9.954 13.793-14.687 20.875l-1.797 2.684a190 190 0 0 0-9.141 15.316c-3.601 6.476-7.964 10.703-13.75 15.25q-2.972 2.403-5.937 4.813l-2.715 2.144c-2.159 1.878-3.744 3.687-5.348 6.043l2.02-1.871c17.042-15.66 17.042-15.66 21.98-18.129-.707 3.442-2.024 6.34-3.555 9.496-23.744 49.602-37.97 102.097-44.695 156.629l-.252 2.017c-2.069 16.755-2.708 33.487-2.686 50.358l.002 2.53c.08 40.973 4.57 80.926 13.186 120.97l.71 3.32c6.28 28.676 16.012 57.041 28.29 83.68l1.485 3.232c13.133 28.386 28.673 55.481 48.515 79.768l2.176 2.75c12.897 16.127 27.477 31.609 43.824 44.25l3.828 3.05c9.921 7.836 20.186 14.7 31.172 20.95l2.304 1.316c34.28 19.362 72.057 27.908 111.196 27.934l2.755.002c15.45-.018 30.453-.9 45.745-3.252l3.412-.488C898.135 1273.9 934.88 1258.836 966 1235l2.723-2.082c5.168-4.05 10.074-8.35 14.918-12.781 2.04-1.849 4.123-3.62 6.234-5.387 42.83-37.594 70.006-98.705 74.816-154.914.525-8.079.49-16.18.496-24.274l.004-2.388q-.002-3.398-.023-6.795l-.004-2.075c-.032-3.279-.326-6.148-1.164-9.304-.165-2.133-.298-4.27-.41-6.406-2.64-39.239-18.553-78.544-40.468-110.824-1.184-1.867-2.166-3.778-3.122-5.77h-2l-1-4h-2a153 153 0 0 1-2.862-4.307c-1.828-2.72-4.038-5.043-6.263-7.443l-1.433-1.55c-4.095-4.4-8.337-8.64-12.641-12.837C990 860 990 860 990 859c60.452-1.861 125.817 17.259 179.1 45.016 1.93 1 3.871 1.977 5.814 2.953 18.84 9.58 36.573 21.188 53.474 33.849 3.824 2.805 3.824 2.805 8.612 3.182 2 2 2 2 2 6 1.356-1.125 1.356-1.125 1.063-4.062L1240 943c2.937 1.328 5.047 2.79 7.348 5.04l1.834 1.757q1.89 1.836 3.773 3.68l1.83 1.75 1.653 1.611c1.639 1.46 1.639 1.46 4.562 1.162 1.363-1.458 1.363-1.458 2.523-3.437l1.407-2.215 1.445-2.348 1.422-2.254c1.897-3.013 3.779-6.033 5.599-9.094l1.33-2.215 1.183-2.003L1277 933h2c2.178 9.51 3.827 18.947 5.063 28.625l.514 3.962c.951 7.378 1.85 14.762 2.61 22.163l.218 2.08c1.396 14.537 1.833 29.136 1.845 43.732l.003 2.531c-.014 17.111-1.262 33.922-3.253 50.907l-.438 3.869c-5.237 45.5-17.176 89.365-35.187 131.444l-.932 2.181c-9.94 23.16-21.56 45.472-35.884 66.232a600 600 0 0 0-4.75 7.06 326 326 0 0 1-21.356 28.473c-2.098 2.514-4.147 5.067-6.203 7.616-3.51 4.286-7.148 8.433-10.884 12.524a551 551 0 0 0-4.403 4.895c-5.636 6.346-11.512 12.406-17.525 18.393l-2.71 2.721c-5.08 5.074-10.264 9.935-15.728 14.592q-1.624 1.425-3.246 2.852c-25.12 21.912-52.966 41.19-82.376 56.877a692 692 0 0 0-4.94 2.667C989.55 1476.586 935.051 1492.814 879 1501l-3.704.548c-38.518 5.371-80.86 5.241-119.296-.548l-4.319-.634c-49.903-7.42-97.174-21.396-142.681-43.366l-2.712-1.292c-32.32-15.423-62.997-35.517-90.288-58.708l-3.246-2.723c-12.087-10.192-23.55-21-34.754-32.152l-2.103-2.089c-4.502-4.516-8.746-9.197-12.897-14.036q-1.477-1.694-2.957-3.387c-29.076-33.513-54.474-71.816-72.16-112.585a223 223 0 0 0-2.637-5.79C366.303 1183.428 355.208 1139.43 349 1095l-.505-3.462c-5.362-38.18-4.986-79.382.505-117.538l.536-3.77C353.38 944.003 359.1 918.298 367 893l.88-2.874C381.245 846.806 401.887 805.053 428 768l1.47-2.1c7.73-11.013 15.892-21.587 24.53-31.9l1.495-1.795c13.664-16.37 28.286-32.735 44.571-46.549 2.237-1.916 4.392-3.911 6.559-5.906 5.65-5.097 11.607-9.755 17.63-14.399a603 603 0 0 0 4.862-3.816C553.155 642.666 579.582 626.46 607 613m-75 91-2 3 3-1zm-4 4-2 3 3-1zm-4 4-3 4 4-2zm-11 12 1 2Zm-4 5 1 2Zm-4 5 1 2Zm-6 8v3Zm-2 3v3Zm-2 3c-4.913 6.517-9.56 13.195-14.062 20l-1.52 2.248-1.39 2.127-1.259 1.898c-1.083 1.91-1.083 1.91.231 4.727l.99-1.585c12.012-19.2 12.012-19.2 18.01-27.415zm-20 31-2 5 3-3zm-3 5c-1.61 2.376-1.61 2.376-3 5l1 2c1.61-2.376 1.61-2.376 3-5zm-4 7 1 2Zm-1 2 1 2Zm-1 2 1 2Zm-1 2 1 2Zm-1 2 1 2Zm-1 2 1 2Zm-1 2 1 2Zm-1 2 1 2Zm-8 18 1 2Z"/><path fill="#ED1C23" d="M2071 911c.63.47 1.258.942 1.907 1.427 7.502 5.66 14.574 11.667 21.429 18.093a196 196 0 0 0 6.664 5.918c3.586 3.098 6.913 6.425 10.25 9.785l1.68 1.685q2.036 2.044 4.07 4.092l.011-2.124q.056-9.93.173-19.86c.04-3.404.072-6.807.087-10.21.018-3.918.068-7.834.12-11.751l.003-3.685c.186-10.756.186-10.756 4.606-15.37 3.83-2.7 8.105-2.279 12.6-2.254l2.67-.01c2.972-.009 5.945-.003 8.919.003l6.434-.011c5.91-.01 11.82-.008 17.73-.004 6.368.002 12.735-.007 19.103-.014q18.72-.018 37.442-.012a50305 50305 0 0 0 41.37-.01q30.6-.013 61.2-.008h2.332l11.7.003h2.346l4.7.002q36.564.007 73.129-.021a90917 90917 0 0 1 90.872-.027h2.176q16.285.002 32.569-.015 18.513-.019 37.027-.002 9.451.011 18.904-.005 8.644-.014 17.288.007 3.135.004 6.27-.008c2.832-.01 5.663-.002 8.494.011l2.485-.022c5.675.055 8.842 1.264 13.025 4.985 1.948 3.867 1.663 7.729 1.649 11.998l.015 2.832q.01 2.962-.003 5.926c-.008 3.013.02 6.025.052 9.039q.003 2.883-.002 5.765l.034 2.719c-.06 5.484-.623 8.958-4.53 13.133-6.117 3.416-11.567 3.417-18.472 3.36l-3.483.009c-3.847.004-7.695-.012-11.543-.028-2.76-.003-5.519 0-8.279 0q-8.91.002-17.818-.024c-8.587-.024-17.175-.032-25.762-.036q-20.9-.01-41.8-.055-20.3-.041-40.599-.061l-2.528-.003-12.56-.011c-34.719-.031-69.437-.086-104.156-.151l1 106 11-11c2.67-2.23 5.342-4.46 8.063-6.629 3.316-2.677 6.53-5.454 9.75-8.246 6.888-5.94 13.974-11.585 21.187-17.125l1.833-1.42C2487.17 952.41 2487.17 952.41 2525 957c5.522 1.116 10.75 2.99 16 5l2.13.795c25.746 9.696 50.328 25.628 62.769 51.04 2.197 4.887 2.686 7.897 2.101 13.165-2.544 4.58-4.415 7.519-9.5 9.063-10.978 4.037-17.224 14.091-22.5 23.937l-1.805 3.36c-26.745 53.49-32.767 141.505-15.951 198.373 3.345 10.026 8.268 19.954 17.756 25.267 8.865 2.313 16.925.535 25.553-1.666 7.887-1.906 7.887-1.906 11.447-.334 10.508 13.017 12.1 29.907 11 46-1.557 9.562-6.252 17.28-13.71 23.398-12.239 8.563-27.72 10.36-42.212 7.95-15.134-3.174-26.354-10.481-37.078-21.348l-1.988-1.992c-39.43-42.24-41.568-112.395-44.315-166.674l-.119-2.289q-.11-2.119-.21-4.237c-.206-3.942-.616-7.818-1.13-11.73-.432-3.778-.574-7.57-.738-11.367l-.122-2.684q-.193-4.326-.378-8.652l-.131-2.983c-.867-19.791-1.44-39.586-1.869-59.392q-3.315 2.113-6.625 4.23l-1.871 1.192c-49.846 31.924-79.244 82.77-91.941 139.765-1.857 8.604-3.452 17.245-4.451 25.993-.612 4.715-1.699 7.48-5.112 10.82-4.317 2.551-8.098 2.597-13 2-3.497-.982-6.77-2.359-10.098-3.805l-2.862-1.197c-3.041-1.276-6.072-2.574-9.102-3.873q-3.12-1.317-6.24-2.628a3476 3476 0 0 1-12.196-5.163q-6.9-2.932-13.83-5.787l-3.422-1.41-3.062-1.262q-2.73-1.124-5.458-2.258l-2.143-.887C2287 1224 2287 1224 2286 1223a68 68 0 0 1-.123-4.45l-.006-2.929.009-3.257-.003-3.43q-.001-5.738.01-11.475l-.001-8.188q0-8.838.008-17.676.011-12.779.012-25.557.004-20.73.019-41.46.014-20.143.02-40.286v-2.506l.005-12.448q.016-51.669.05-103.338h-91l.063 39.561a163076 163076 0 0 1 .157 144.68l.003 3.91c.017 20.909.049 41.817.086 62.726q.056 32.167.067 64.336.008 19.86.056 39.717.03 13.607.022 27.214c-.003 5.239.001 10.476.023 15.715q.028 7.189.007 14.378a636 636 0 0 0 .016 5.21 541 541 0 0 1-.008 7.068l.005 3.97c-.586 4.144-1.878 6.286-4.497 9.515-4.148 2.705-7.098 3.469-12 3a68 68 0 0 1-7.059-3.84l-2.018-1.213a837 837 0 0 1-6.36-3.884q-2.08-1.26-4.163-2.518a1969 1969 0 0 1-8.321-5.06 839 839 0 0 0-9.658-5.814 172 172 0 0 1-3.658-2.255c-3.24-2.036-6.329-3.688-9.933-4.985-4.804-1.943-8.782-4.134-11.83-8.431-2.862-8.825-1.973-18.631-1.722-27.807.088-3.863.083-7.725.088-11.588.022-6.69.1-13.378.216-20.067.166-9.696.228-19.39.263-29.086.059-15.764.177-31.526.345-47.29l.03-2.856q.091-8.595.186-17.189.14-12.857.274-25.715l.03-2.842c.16-15.692.26-31.383.32-47.075.04-9.659.132-19.314.296-28.972.11-6.633.164-13.265.178-19.9.01-3.816.044-7.627.146-11.442.53-20.507-3.116-33.355-16.65-49.171a694 694 0 0 1-5.188-6.652c-5.723-7.293-11.981-14.163-18.389-20.857a491 491 0 0 1-4.091-4.354c-16.165-16.882-39.601-32.847-63.762-33.375-16.692-.289-33.94.091-47.285 11.734A139 139 0 0 0 1958 958h-2l-.848 1.75c-1.152 2.25-1.152 2.25-2.336 4.188-4.98 8.19-7.843 17.133-6.382 26.757 1.798 7.318 6.098 13.197 11.566 18.305 5.236 3.106 10.902 2.744 16.698 1.352 2.735-.86 5.424-1.8 8.114-2.79q2.728-.97 5.458-1.933l2.393-.873c14.502-4.692 31.86-2.731 45.364 3.682 23.017 12.323 40.38 37.953 48.29 62.472 7.941 27.385 1.701 58.916-11.348 83.727-3.576 6.109-7.64 11.77-11.969 17.363l-1.297 1.7c-17.297 22.442-41.832 34.64-69.738 38.588-27.084 3.328-54.758-.437-76.965-17.288-4.17-3.488-8.085-7.231-12-11l-1.96-1.734c-12.637-11.51-21.653-29.542-22.725-46.557-.435-15.577 5.353-29.313 10.685-43.709a1835 1835 0 0 0 2.832-7.914l1.261-3.538.907-2.548h2a93 93 0 0 1 4.063 5.766l1.187 1.787a886 886 0 0 1 2.481 3.763c1.257 1.916 2.524 3.826 3.792 5.735q1.208 1.825 2.415 3.652l1.142 1.727c1.478 2.256 2.875 4.478 4.065 6.901 1.18 2.305 2.505 2.625 4.855 3.669l2.688 1.938c13.675 8.514 32.926 7.723 48.25 4.937 16.405-3.933 32.404-9.919 41.89-24.71 3.509-6.48 3.093-14.869 1.172-21.852-2.547-6.596-7.352-11.744-13.375-15.313-9.312-2.569-14.898-2.053-23.625 2q-3.175 1.344-6.375 2.625l-2.96 1.227c-25.768 8.076-58.55 4.671-82.532-7.825-18.665-10.375-29.729-25.77-36.004-45.863-4.749-16.681-3.83-36.85 1.871-53.164l1.027-3.105c10.15-27.344 35.754-48.994 61.473-61.207 55.25-25.231 112.032-15.234 159.5 20.312M607 613c0 3.369-.401 3.903-2.352 6.492l-1.56 2.105-1.713 2.278c-5.051 6.858-9.954 13.793-14.687 20.875l-1.797 2.684a190 190 0 0 0-9.141 15.316c-3.6 6.474-7.96 10.71-13.75 15.25-6.894 5.489-13.323 11.115-19.41 17.483-3.29 3.4-6.56 6.029-10.59 8.517 3.114-7.093 9.963-12.05 15.723-17.012 2.86-2.497 5.665-5.05 8.465-7.613l1.512-1.38c3.183-2.92 6.352-5.837 9.3-8.995v-2c-12.469 10.714-24.659 21.584-36.312 33.188l-2.283 2.268A248 248 0 0 0 515 717l-1.647 1.93c-52.76 62.25-86.806 139.145-95.927 220.284a582 582 0 0 1-.963 8.046c-1.588 13.023-1.82 25.944-1.776 39.053l.006 3.326c.05 17.631.715 34.896 3.307 52.361l.536 3.645A561 561 0 0 0 423 1071l.62 3.115c6.772 32.962 18.52 67.073 34.288 96.806a495 495 0 0 1 3.612 7.052c6.171 12.127 12.958 23.69 20.48 35.027l1.438 2.168c10.632 15.926 22.3 31.11 35.226 45.25a228 228 0 0 1 3.824 4.313c4.853 5.643 9.998 10.947 15.262 16.207l2.685 2.684c5.225 5.18 10.47 10.08 16.284 14.593 2.263 1.771 4.358 3.648 6.468 5.598C623.322 1357.74 708.31 1390.509 788 1398l2.98.286c95.574 8.014 190.013-16.424 302.858-94.828 15.915-13.48 31.657-27.521 45.162-43.458q1.332-1.52 2.668-3.04c20.708-23.651 38.08-50.14 53.106-77.713q1.294-2.37 2.604-4.732c8.657-15.662 15.396-31.752 21.622-48.515q.885-2.32 1.773-4.64c15.135-40.285 21.51-84.972 21.352-127.86l-.004-2.21c-.031-16.118-.186-32.272-2.121-48.29 2.937 1.328 5.047 2.79 7.348 5.04l1.834 1.757q1.89 1.836 3.773 3.68l1.83 1.75 1.653 1.611c1.639 1.46 1.639 1.46 4.562 1.162 1.363-1.458 1.363-1.458 2.523-3.437l1.407-2.215 1.445-2.348 1.422-2.254c1.897-3.013 3.779-6.033 5.599-9.094l1.33-2.215 1.183-2.003L1277 933h2c2.178 9.51 3.827 18.947 5.063 28.625l.514 3.962c.951 7.378 1.85 14.762 2.61 22.163l.218 2.08c1.396 14.537 1.833 29.136 1.845 43.732l.003 2.531c-.014 17.111-1.262 33.922-3.253 50.907l-.438 3.869c-5.237 45.5-17.176 89.365-35.187 131.444l-.932 2.181c-9.94 23.16-21.56 45.472-35.884 66.232a600 600 0 0 0-4.75 7.06 326 326 0 0 1-21.356 28.473c-2.098 2.514-4.147 5.067-6.203 7.616-3.51 4.286-7.148 8.433-10.884 12.524a551 551 0 0 0-4.403 4.895c-5.636 6.346-11.512 12.406-17.525 18.393l-2.71 2.721c-5.08 5.074-10.264 9.935-15.728 14.592q-1.624 1.425-3.246 2.852c-25.12 21.912-52.966 41.19-82.376 56.877a692 692 0 0 0-4.94 2.667C989.55 1476.586 935.051 1492.814 879 1501l-3.704.548c-38.518 5.371-80.86 5.241-119.296-.548l-4.319-.634c-49.903-7.42-97.174-21.396-142.681-43.366l-2.712-1.292c-32.32-15.423-62.997-35.517-90.288-58.708l-3.246-2.723c-12.087-10.192-23.55-21-34.754-32.152l-2.103-2.089c-4.502-4.516-8.746-9.197-12.897-14.036q-1.477-1.694-2.957-3.387c-29.076-33.513-54.474-71.816-72.16-112.585a223 223 0 0 0-2.637-5.79C366.303 1183.428 355.208 1139.43 349 1095l-.505-3.462c-5.362-38.18-4.986-79.382.505-117.538l.536-3.77C353.38 944.003 359.1 918.298 367 893l.88-2.874C381.245 846.806 401.887 805.053 428 768l1.47-2.1c7.73-11.013 15.892-21.587 24.53-31.9l1.495-1.795c13.664-16.37 28.286-32.735 44.571-46.549 2.237-1.916 4.392-3.911 6.559-5.906 5.65-5.097 11.607-9.755 17.63-14.399a603 603 0 0 0 4.862-3.816C553.155 642.666 579.582 626.46 607 613"/><path fill="#ED1C23" d="m1434.048 886.62 2.126-.014c2.355-.012 4.71-.003 7.066.006q2.556-.006 5.11-.016c4.687-.014 9.373-.01 14.059-.003 5.052.005 10.103-.008 15.155-.018a13093 13093 0 0 1 29.697-.013q12.065.006 24.13-.002l3.467-.003 6.97-.004c21.8-.014 43.601-.009 65.402.003 19.954.01 39.909-.003 59.863-.027q30.718-.037 61.435-.027c11.502.003 23.003 0 34.505-.017q14.684-.022 29.372.002c4.997.009 9.994.011 14.991-.004q6.859-.02 13.718.01 2.484.005 4.968-.01c2.248-.013 4.495-.001 6.744.016h3.786c4.822.713 7.907 2.918 11.2 6.438 2.615 4.542 2.348 9.635 2.356 14.743l.01 2.215q.007 2.312.007 4.624c.002 2.342.02 4.683.04 7.024q.005 2.256.005 4.512l.022 2.096c-.026 5.745-.445 10.993-4.564 15.224-4.34 2.624-8.432 2.75-13.426 2.723l-3.233-.01-3.341-.026-3.4-.013q-4.145-.018-8.288-.049l.003 2.775a245538 245538 0 0 1 .164 186.193q.021 31.498.064 62.995.042 32.31.051 64.618.005 19.943.042 39.887.023 13.668.017 27.335c-.002 5.26 0 10.521.017 15.782q.02 7.221.005 14.443-.003 2.614.012 5.23c.012 2.367.005 4.735-.006 7.103l.004 3.987c-.491 4.813-1.766 8.798-4.998 12.527-3.839 1.818-7.179 2.537-11.375 2.125-4.74-1.961-8.985-4.654-13.312-7.375q-1.899-1.158-3.8-2.31a1001 1001 0 0 1-7.887-4.843 1045 1045 0 0 0-11.915-7.25 3168 3168 0 0 1-14.395-8.71l-2.9-1.767L1741 1357l-3.13-1.563c-2.87-2.437-2.87-2.437-3.61-6.339q-.036-2.415.015-4.832l-.018-2.673c-.013-2.925.016-5.848.044-8.773q-.006-3.074-.02-6.147c-.02-5.414-.005-10.827.018-16.24.035-8.599.029-17.198.004-25.796-.002-2.972.015-5.943.035-8.915.1-42.29-13.43-82.153-39.338-115.722l-2.203-2.879c-19.676-24.877-46.391-42.441-78.297-46.496-15.117-1.47-29.134-1.503-41.5 8.375l-2.469 1.852c-9.822 8.336-15.917 20.444-17.531 33.148-.653 11.419-.52 20.157 7.063 29.187 10.266 10.698 23.935 15.807 38.625 16.125 11.163-.105 21.146-4.212 29.132-12.113 5.165-5.826 6.482-10.046 6.594-17.902l.059-2.539c.06-2.67.106-5.338.152-8.008q.057-2.719.117-5.438.142-6.655.258-13.312 3.805 1.895 7.61 3.793l2.153 1.072c19.856 9.911 36.318 22.574 44.237 44.135 5.577 18.393 3.973 37.933-5 55-2.466 3.841-5.158 7.432-8 11l-1.426 1.926c-10.66 13.678-29.11 22.068-45.574 26.074l-2.77.68c-29.358 5.995-63.969-1.069-88.917-17.368-28.643-19.583-44.187-50.314-50.802-83.785-1.854-10.114-3.117-20.246-3.511-30.527l-.16-3.457c-.88-35.336 13.134-68.986 37.02-94.77 19.322-20.247 42.14-32.38 70.33-33.714 42.767-.9 80.813 20.925 111.196 49.329 11.717 11.29 21.016 24.523 30.614 37.612l1-163-65.816.07a201408 201408 0 0 1-62.828.04l-2.739.001q-21.891.015-43.782.043-22.464.028-44.928.034-13.863.004-27.726.028-9.505.015-19.01.011c-3.656-.001-7.313 0-10.97.011-3.964.012-7.93.008-11.894.003l-3.5.017c-13.54-.05-13.54-.05-18.182-4.57-2.92-4.829-2.794-9.813-2.828-15.333l-.017-2.207q-.015-2.307-.02-4.612c-.01-2.33-.041-4.66-.072-6.991q-.01-2.25-.016-4.502l-.038-2.081c.023-4.9.678-9.785 3.366-13.962 4.057-3.021 7.046-3.376 12.048-3.38"/><path fill="#F7931C" d="M1152 655c84.847-1.996 166.074 31.176 232 83-.57 4.14-1.91 6.8-4.219 10.262l-2.051 3.103-2.23 3.322q-1.146 1.726-2.289 3.454a3282 3282 0 0 1-4.784 7.205 2252 2252 0 0 0-10.467 15.931l-3.161 4.83a982 982 0 0 0-9.041 14.022c-3.548 5.595-7.227 11.098-10.91 16.605a2470 2470 0 0 0-11.344 17.137c-13.12 19.975-26.333 39.878-39.726 59.671-9.065 13.398-18.043 26.842-26.778 40.458-7.164-6.128-7.164-6.128-10.562-9.125l-2.043-1.781a880 880 0 0 1-5.383-4.75C1187.046 872.557 1118.275 845.579 1050 837l-2.652-.355c-30.82-3.995-63.637-3.087-94.348 1.355l-3.492.504c-39.339 5.914-77.257 18.31-112.59 36.51-1.8.925-3.607 1.835-5.414 2.744A307 307 0 0 0 779 912l-2.992 2.387A539 539 0 0 0 768 921l-1.595 1.321c-8.78 7.282-16.958 15.002-24.923 23.166a440 440 0 0 1-4.11 4.126c-6.153 6.193-11.807 12.726-16.962 19.77L719 971h-2l-.828 1.757c-1.977 3.785-4.617 7.082-7.172 10.493l-1.656 2.258-1.594 2.133-1.453 1.954L703 991h-2c13.636-47.597 41.695-92.292 74.906-128.687a231 231 0 0 0 5.219-6A240 240 0 0 1 808 830l2.734-2.398c8.974-7.83 18.507-14.787 28.266-21.602l1.978-1.388c9.945-6.94 20.298-12.96 31.022-18.612l2.707-1.43C962.886 738.36 1059.691 730.637 1155 756c-.557-23.162-1.364-46.308-2.34-69.456-.435-10.522-.817-21.01-.66-31.544M787 497c1.64 2.335 1.64 2.335 3.25 5.45l1.825 3.475 1.925 3.762q1.005 1.928 2.015 3.853 2.04 3.892 4.066 7.792c2.612 5.01 5.323 9.966 8.044 14.918l4.376 8.002c2.678 4.91 5.338 9.83 7.999 14.748a6794 6794 0 0 0 12.5 23 6839 6839 0 0 1 12.5 23c4.22 7.796 8.446 15.59 12.688 23.375l1.475 2.714a817 817 0 0 0 7.345 13.216l1.433 2.53a597 597 0 0 0 2.702 4.71c1.013 1.785 1.944 3.616 2.857 5.455-1.314 2.628-2.435 2.782-5.129 3.883l-2.611 1.085-2.822 1.157c-8.613 3.614-17.009 7.46-25.295 11.767-2.37 1.225-4.75 2.428-7.131 3.631C818.892 684.7 807.333 691.481 796 699l-2.168 1.438C784.6 706.601 775.707 713.12 767 720l-2.535 1.98C741.279 740.265 719.18 760.666 701 784l-2.059 2.598c-3.266 4.008-3.266 4.008-5.941 8.402h-2l-.85 1.785c-1.059 2.04-2.197 3.803-3.548 5.656l-1.435 1.988-1.542 2.134c-10.131 14.206-19.196 28.966-27.48 44.319a873 873 0 0 1-3.368 6.157c-3.529 6.449-6.75 12.918-9.46 19.762-1.205 2.927-2.54 5.763-3.903 8.618C628.719 908.22 621.29 933.44 616 958l-.501 2.317c-9.185 44.175-11.418 90.184-6.769 135.063.467 4.536.863 9.078 1.27 13.62-3.762-1.254-3.881-2.168-5.625-5.625-2.3-4.41-4.75-8.65-7.375-12.875-51.528-84.757-68.684-189.21-46.82-311.14 6.15-25.174 14.004-49.796 24.82-73.36l1.36-2.972C589.605 674.273 605.413 646.94 625 622q1.3-1.698 2.598-3.398c5.272-6.863 10.773-13.38 16.699-19.688 2.013-2.17 3.953-4.36 5.879-6.605 4.52-5.189 9.388-10.018 14.261-14.871l2.737-2.749C672.287 569.584 677.48 564.663 683 560l1.923-1.64c23.637-20.047 49.222-36.943 76.452-51.673l3.35-1.815c4.729-2.536 9.47-5.043 14.314-7.352l2.045-.978c2.49-.705 3.569-.665 5.916.458"/><path fill="#ED1C23" d="m1054.992 509.797 3.083-.02c3.266-.018 6.533-.024 9.8-.027l3.362-.007c17.452-.014 34.479.76 51.763 3.257.755 11.71 1.255 23.407 1.573 35.136l.148 5.23q.198 7.023.39 14.046.163 5.9.328 11.8.39 13.938.773 27.876.394 14.296.796 28.593.345 12.351.688 24.703.202 7.342.409 14.686.194 6.913.381 13.827l.14 5.02c.343 12.03.424 24.048.374 36.083l-3.5-.42c-7.683-.918-15.37-1.808-23.062-2.643l-2.136-.24c-14.318-1.529-28.604-1.903-42.99-1.885l-2.708.002c-47.134.086-92.54 7.62-137.604 21.186l-3.03.91C857.77 764.045 805.915 795.293 762 834l-2.205 1.935c-6.458 5.733-12.632 11.716-18.736 17.82a1331 1331 0 0 1-4.87 4.83C729.672 865.07 723.723 871.796 718 879a270 270 0 0 1-2.758 3.215C703.045 896.243 691.925 911.283 682 927l-1.13 1.789C674.34 939.218 668.63 950.064 663 961h-2c6.021-67.793 39.921-133.418 83-185l2.426-2.992c6.604-8.034 13.806-15.455 21.136-22.82l1.463-1.479c5.908-5.958 12.003-11.534 18.561-16.777a148 148 0 0 0 5.629-4.725c25.835-22.721 56.958-40.071 88.41-53.707l3.595-1.567c6.23-2.649 12.11-4.739 18.78-5.933-6.643-12.449-13.306-24.876-20.312-37.125-6.257-10.948-12.164-22.072-18.04-33.227l-1.07-2.027a4677 4677 0 0 1-2.883-5.48 121 121 0 0 0-3.412-5.932C857 580 857 580 856.922 577.97c1.692-3.09 4.427-4.63 7.328-6.469l1.99-1.292c8.25-5.279 16.776-10.097 25.331-14.856a734 734 0 0 0 4.46-2.5c47.02-26.598 104.884-42.805 158.961-43.055"/><path fill="#ED2423" d="M429 891c1.261 3.784.55 5.48-.434 9.336-5.45 23.347-6.258 46.33-6.197 70.188q.008 3.753.005 7.504c.019 26.868 1.172 53.696 6.188 80.16l.369 1.982C445.463 1148.45 492.39 1234.354 561 1293q1.654 1.447 3.305 2.898C596.476 1324.11 631.3 1345.84 670 1364c-3.793 1.264-4.644.542-8.207-1.105l-3.183-1.463-3.423-1.62-3.529-1.654c-30.53-14.476-58.79-32.43-84.658-54.158l-1.944-1.628c-6.03-5.063-12.016-10.122-17.486-15.798-1.783-1.787-3.657-3.427-5.57-5.074-5.82-5.035-11.051-10.458-16.066-16.29-2.18-2.491-4.432-4.908-6.684-7.335-5.254-5.77-10.08-11.813-14.82-18.008a751 751 0 0 0-2.875-3.73c-25.016-32.248-44.144-68.256-58.493-106.377a149 149 0 0 0-2.753-6.678c-1.293-3.045-2.246-6.019-3.122-9.207l-1.023-3.71-.558-2.023a349 349 0 0 0-2.02-6.806c-3.89-12.888-6.665-25.84-9.011-39.091-.555-3.133-1.129-6.26-1.704-9.39C413.53 1000.94 414.348 941.931 429 891"/><path fill="#EF2C20" d="m466 793 1 2c-.665 1.828-.665 1.828-1.766 4.035l-1.199 2.455-1.285 2.572c-3.084 6.204-5.744 12.299-7.75 18.938h-2l-.546 1.669a429 429 0 0 1-5.59 15.866c-.285.764-.57 1.528-.862 2.316l-2.69 7.212-1.837 4.935Q439.24 861 437 867c-1.585-3.994-.34-6.7 1.07-10.625l.705-1.974a679 679 0 0 1 2.35-6.401l.81-2.21c6.675-18.159 14.4-36.006 24.065-52.79"/></svg>