<svg xmlns="http://www.w3.org/2000/svg" width="764" height="350"><path fill="#006CB4" d="m589.113 87.805 2.938.008c3.088.011 6.174.037 9.261.062q3.147.016 6.292.027c5.132.02 10.264.058 15.396.098a5656 5656 0 0 1 13.566 63.214q.946 4.536 1.895 9.07 2.23 10.676 4.457 21.352 2.291 10.982 4.59 21.961 1.99 9.513 3.975 19.027 1.178 5.647 2.36 11.295 1.104 5.268 2.2 10.537.595 2.853 1.194 5.705l.71 3.417.62 2.971C659 259 659 259 659 262h-43l-2.5-11.312-.791-3.556-.615-2.808-.635-2.872C611 239 611 239 611 236h-56l-3 10-6 16h-48c.85-5.105 2.122-9.141 4.14-13.809l.965-2.272c1.042-2.455 2.094-4.906 3.145-7.357l2.202-5.178a7882 7882 0 0 1 4.457-10.472c2.85-6.688 5.66-13.393 8.466-20.1l1.554-3.708q5.226-12.467 10.44-24.939 4.592-10.973 9.188-21.943a18244 18244 0 0 0 6.858-16.394q2.178-5.21 4.362-10.419 1.02-2.436 2.037-4.874c11.174-26.787 11.174-26.787 20.17-31.595 4.383-1.366 8.565-1.186 13.13-1.135M590 139q-4.113 11.29-8.214 22.583-1.904 5.244-3.814 10.486a6876 6876 0 0 0-3.676 10.115q-.702 1.932-1.407 3.863-.985 2.7-1.961 5.402l-1.13 3.109c-.901 2.33-.901 2.33-.798 4.442h34c-.78-7.264-.78-7.264-2-14.38l-.587-2.881-.628-3.012-.654-3.169q-.68-3.29-1.369-6.58a2838 2838 0 0 1-2.08-10.091l-1.334-6.41-.622-3.05-.597-2.823-.516-2.482c-.576-2.393-.576-2.393-2.613-5.122M106 88q15.243-.106 30.486-.155c4.72-.016 9.439-.037 14.158-.071 4.558-.033 9.116-.05 13.675-.059q2.602-.008 5.205-.032c2.439-.022 4.877-.025 7.316-.024l2.151-.032c5.854.035 11.228 1.313 15.997 4.846 5.95 7.143 7.297 16.163 8.99 25.092.173.897.348 1.794.528 2.718a2533 2533 0 0 1 1.114 5.782q.877 4.57 1.766 9.14 1.876 9.677 3.739 19.357 2.172 11.267 4.358 22.532.873 4.51 1.736 9.022l1.063 5.484.485 2.548c.446 3.735.446 3.735 2.233 6.852a51539 51539 0 0 0 31.75-87.437l.71-1.96L262 88h50c-1.97 6.57-3.961 12.69-6.633 18.941l-1.057 2.51q-1.125 2.667-2.255 5.332c-1.624 3.825-3.236 7.655-4.849 11.485l-2.51 5.957a4735 4735 0 0 0-12.134 29.088l-2.087 5.04a32261 32261 0 0 0-7.644 18.474A48829 48829 0 0 0 241 262h-48c-1.967-4.59-3.503-8.368-4.727-13.08l-.924-3.525-.974-3.786-1.04-3.99a4700 4700 0 0 1-2.764-10.661c-.957-3.703-1.921-7.404-2.883-11.105a12444 12444 0 0 1-12.027-46.651q-.985-3.835-1.977-7.667c-1.902-7.375-3.757-14.75-5.428-22.182-.742-3.286-1.512-6.565-2.285-9.844q-.525-2.28-1.002-4.568c-1.566-8.208-1.566-8.208-6.057-15.028-2.575-1.62-5.09-2.784-7.912-3.913l-2.848-1.309c-2.963-1.343-5.951-2.59-8.964-3.816l-3.178-1.31C120.779 96.622 113.56 93.979 106 92zM508 92c1.294 3.88.54 6.986-.145 10.914l-.393 2.334q-.415 2.44-.84 4.877c-.434 2.496-.85 4.993-1.265 7.492q-.405 2.368-.814 4.735l-.376 2.275c-.322 1.805-.736 3.592-1.167 5.373l-2 1c-2.005-.7-3.98-1.487-5.937-2.312-14.714-5.758-34.152-8.134-49.137-1.954-3.288 2.16-4.69 4.47-5.801 8.204-.156 3.821.507 5.083 2.875 8.062 4.488 4.082 9.158 6.913 14.5 9.75 18.538 10.107 37.082 20.869 44.086 42.02 2.605 14.03-.226 28.03-7.965 39.957-12.427 17.428-31.976 25.357-52.523 28.957-22.759 3.439-45.84 1.327-67.098-7.684l-1-1c.169-8.38 2.031-16.827 3.438-25.062l.658-4.03.65-3.818.584-3.473L379 216l2-1c1.764.826 3.486 1.74 5.188 2.688 16.42 8.506 37.45 11.474 55.351 6.226 4.424-1.643 7.278-3.54 10.399-7.164 1.482-3.837 1.325-6.917.062-10.75-3.633-7.05-11.19-10.242-17.871-13.846-35.943-19.48-35.943-19.48-42.129-40.154-3.005-13.272.65-27.298 7.75-38.625 10.984-15.47 28.063-23.548 46.443-26.783C465.553 83.532 490.06 82.723 508 92M328 88h47c-4.787 31.544-9.838 63.043-14.958 94.534q-1.812 11.144-3.612 22.292-1.413 8.745-2.836 17.49-.842 5.175-1.677 10.351c-.613 3.81-1.235 7.62-1.857 11.429l-.545 3.404c-.17 1.038-.342 2.075-.518 3.144l-.44 2.712c-.62 2.94-1.607 5.793-2.557 8.644h-46c1.729-12.676 3.45-25.299 5.528-37.912l.706-4.33q.938-5.755 1.884-11.508.993-6.067 1.984-12.136 1.66-10.152 3.323-20.304 2.134-13.02 4.26-26.04a93662 93662 0 0 1 7.38-45.096l.924-5.64.522-3.184c.45-2.625.967-5.239 1.489-7.85"/><path fill="#F5A643" d="M106 88q15.243-.106 30.486-.155c4.72-.016 9.439-.037 14.158-.071 4.558-.033 9.116-.05 13.675-.059q2.602-.008 5.205-.032c2.439-.022 4.877-.025 7.316-.024l2.151-.032c5.854.035 11.228 1.313 15.997 4.846 7.153 8.588 8.116 20.35 10.184 31.02l.869 4.434q.902 4.616 1.794 9.233c.763 3.943 1.539 7.883 2.318 11.822.6 3.043 1.19 6.087 1.78 9.132q.425 2.181.857 4.36c.4 2.026.79 4.053 1.178 6.08l.679 3.489c.327 2.736.26 4.39-.647 6.957l-.851-1.614c-5.488-10.345-11.106-20.27-18.153-29.636-1.612-2.221-2.886-4.254-3.996-6.75h-2c-1.375-1.434-1.375-1.434-3-3.437-12.56-14.641-28.674-24.538-46-32.563l-2.992-1.426C126.98 98.88 116.67 94.963 106 92z"/></svg>